<svg width="20.000000" height="20.000000" viewBox="0 0 20 20" fill="none" xmlns="http://www.w3.org/2000/svg" xmlns:xlink="http://www.w3.org/1999/xlink">
	<desc>
			Created with Pixso.
	</desc>
	<defs>
		<clipPath id="clip15272_32259">
			<rect id="Icon / Outlined / Phone" width="20.000000" height="20.000000" transform="matrix(-1 0 0 1 20 0)" fill="white" fill-opacity="0"/>
		</clipPath>
	</defs>
	<rect id="Icon / Outlined / Phone" width="20.000000" height="20.000000" transform="matrix(-1 0 0 1 20 0)" fill="#FFFFFF" fill-opacity="0"/>
	<g clip-path="url(#clip15272_32259)">
		<path id="Vector" d="M2.86914 4.66211L4.94922 2.58398C5.20312 2.33008 5.54297 2.1875 5.90234 2.1875C6.26172 2.1875 6.60156 2.32812 6.85547 2.58398L9.0957 4.82031C9.34961 5.07422 9.49219 5.41602 9.49219 5.77539C9.49219 6.13672 9.35156 6.47461 9.0957 6.73047L7.3457 8.48242C7.74414 9.41113 8.31641 10.2549 9.0332 10.9688C9.75 11.6895 10.5879 12.2578 11.5176 12.6602L13.2676 10.9082C13.5215 10.6543 13.8613 10.5117 14.2207 10.5117C14.3984 10.5107 14.5742 10.5459 14.7363 10.6143C14.9004 10.6816 15.0488 10.7822 15.1738 10.9082L17.416 13.1445C17.6699 13.3984 17.8125 13.7402 17.8125 14.0996C17.8125 14.4609 17.6719 14.7988 17.416 15.0547L15.3379 17.1328C14.9043 17.5664 14.3066 17.8145 13.6934 17.8145C13.5664 17.8145 13.4434 17.8047 13.3184 17.7832C10.7324 17.3574 8.16602 15.9805 6.09375 13.9102C4.02344 11.8359 2.64844 9.26953 2.21875 6.68164C2.0957 5.94727 2.3418 5.19141 2.86914 4.66211ZM3.60352 6.44922C3.98438 8.75195 5.22266 11.0488 7.08789 12.9141C8.95312 14.7793 11.248 16.0176 13.5508 16.3984C13.8398 16.4473 14.1367 16.3496 14.3477 16.1406L16.3887 14.0996L14.2246 11.9336L11.8848 14.2773L11.8672 14.2949L11.4453 14.1387C10.166 13.668 9.00391 12.9258 8.04102 11.9619C7.07812 10.998 6.33594 9.83594 5.86523 8.55664L5.70898 8.13477L8.06836 5.77734L5.9043 3.61133L3.86328 5.65234C3.65234 5.86328 3.55469 6.16016 3.60352 6.44922Z" fill="#0069AB" fill-opacity="1.000000" fill-rule="nonzero"/>
	</g>
</svg>
